<?xml version="1.0" encoding="UTF-8"?>
<svg xmlns="http://www.w3.org/2000/svg" xmlns:xlink="http://www.w3.org/1999/xlink"
     width="124.2002506369387" height="312.3463927776804" viewBox="-52.10012531846935 -158.1731963888402 124.2002506369387 312.3463927776804">
<defs>
<style type="text/css">
.l0d0 {stroke: rgb(255, 0, 0); fill: rgb(255, 0, 0); fill-opacity: 0.5;}
.l1d0 {stroke: rgb(21, 255, 21); fill: rgb(21, 255, 21); fill-opacity: 0.5;}
.l2d0 {stroke: rgb(42, 42, 255); fill: rgb(42, 42, 255); fill-opacity: 0.5;}
</style>
<g id="WIRE_CONNECTION" >
<polygon class="l0d0" points="40.0,100.0 39.61072274966281,105.56692403840262 38.450467837532756,111.02549423267996 36.541818305704034,116.269465723032 33.92192384625704,121.19677056932818 30.64177772475912,125.71150438746157 26.76522425435433,129.72579301909576 22.36771613882987,133.16150290220168 17.5348458715631,135.95176185196667 12.360679774997898,138.04226065180615 6.945927106677217,139.39231012048833 1.3959798681000433,139.97563308076383 -4.181138530706133,139.78087581473093 -9.67687582398671,138.81182905103987 -14.984263736636482,137.0873541826715 -19.999999999999993,134.64101615137756 -24.62645901302633,131.52043014426886 -28.773592013546047,127.78633481835989 -32.36067977499789,123.51141009169893 -35.31790371435707,118.77886251143565 -37.587704831436334,113.68080573302676 -39.12590402935223,108.31646763271037 -39.90256201039297,102.79025894976502 -39.90256201039297,97.20974105023501 -39.12590402935223,91.68353236728963 -37.58770483143634,86.31919426697326 -35.31790371435707,81.22113748856437 -32.360679774997905,76.48858990830108 -28.773592013546043,72.21366518164011 -24.626459013026324,68.47956985573111 -20.000000000000018,65.35898384862247 -14.984263736636493,62.9126458173285 -9.67687582398671,61.18817094896015 -4.181138530706134,60.21912418526906 1.3959798681000513,60.024366919236165 6.945927106677199,60.607689879511675 12.36067977499789,61.957739348193854 17.534845871563096,64.04823814803332 22.36771613882985,66.83849709779832 26.76522425435431,70.27420698090422 30.641777724759113,74.28849561253841 33.921923846257016,78.80322943067176 36.54181830570404,83.730534276968 38.45046783753275,88.97450576732001 39.61072274966281,94.43307596159735"/>
<polygon class="l1d0" points="0.0,0.0 0.0,100.0 3.0,100.0 3.0,0.0"/>
</g>
</defs>
<rect x="-52.10012531846935" y="-158.1731963888402" width="124.2002506369387" height="312.3463927776804" fill="#222" stroke="none"/>
<g id="QUBIT" transform="scale(1 -1)">
<polygon class="l2d0" points="0.0,0.0 0.0,4.0 20.0,4.0 20.0,0.0"/>
<use transform="translate(2.0 4.0)" xlink:href="#WIRE_CONNECTION"/>
<use transform="translate(18.0 0.0) rotate(180.0)" xlink:href="#WIRE_CONNECTION"/>
</g>
</svg>